<?xml version="1.0" standalone="no"?>
<!DOCTYPE svg PUBLIC "-//W3C//DTD SVG 20010904//EN"
 "http://www.w3.org/TR/2001/REC-SVG-20010904/DTD/svg10.dtd">
<svg version="1.0" xmlns="http://www.w3.org/2000/svg"
 width="140.000000pt" height="140.000000pt" viewBox="0 0 140.000000 140.000000"
 preserveAspectRatio="xMidYMid meet">
<metadata>
Created by potrace 1.14, written by Peter Selinger 2001-2017
</metadata>
<g transform="translate(0.000000,140.000000) scale(0.100000,-0.100000)"
fill="#000000" stroke="none">
<path d="M391 1096 l-304 -304 17 -26 c9 -14 21 -26 26 -26 5 0 14 -9 21 -21
9 -18 6 -26 -25 -58 -20 -20 -36 -40 -36 -44 0 -13 599 -607 612 -607 16 0
608 591 608 607 0 6 -16 28 -36 48 l-35 37 40 43 40 44 -304 305 c-168 168
-308 306 -312 306 -5 0 -145 -137 -312 -304z m600 -27 l282 -281 -285 -285
-285 -285 -286 284 -285 285 282 282 c154 154 284 281 289 281 4 0 134 -127
288 -281z m-289 -889 c7 0 125 112 262 249 l250 250 29 -31 30 -30 -286 -286
-285 -285 -285 285 -285 285 30 30 30 30 248 -248 c136 -137 254 -249 262
-249z"/>
<path d="M481 1006 c-195 -195 -213 -216 -200 -232 43 -53 412 -414 422 -414
7 0 108 96 225 214 l213 213 -216 217 c-119 119 -220 216 -223 216 -4 0 -104
-96 -221 -214z m417 -413 l-195 -195 -195 194 -196 195 195 195 195 196 195
-195 196 -195 -195 -195z"/>
<path d="M572 917 c-67 -67 -122 -125 -122 -129 0 -11 242 -248 254 -248 15 0
246 232 246 248 0 12 -237 252 -249 252 -3 0 -61 -55 -129 -123z m338 -130 c0
-1 -47 -49 -104 -106 l-103 -103 -106 105 -105 104 105 105 106 106 103 -104
c57 -58 104 -106 104 -107z"/>
<path d="M660 825 l-34 -35 34 -35 c19 -19 38 -35 44 -35 14 0 66 51 66 65 0
11 -61 75 -71 75 -3 0 -20 -16 -39 -35z m58 -52 c-11 -14 -38 -6 -38 11 0 7 5
17 12 24 16 16 41 -17 26 -35z"/>
</g>
</svg>
