<svg width="459" height="140" viewBox="0 0 459 140" fill="none" xmlns="http://www.w3.org/2000/svg">
<g clip-path="url(#clip0_201_2)">
<path d="M61.2014 120.756L62.3629 119.595L3.96943 61.2014L61.2014 3.96942L118.422 61.2014L60.0399 119.584L61.2014 120.756L62.3629 121.918L121.907 62.3738C122.214 62.067 122.389 61.6397 122.389 61.2123C122.389 60.774 122.214 60.3576 121.907 60.0508L62.3629 0.484877C61.7164 -0.161626 60.6754 -0.161626 60.0399 0.484877L0.484885 60.0399C-0.161618 60.6864 -0.161618 61.7273 0.484885 62.3629L60.0399 121.918C60.3467 122.225 60.774 122.4 61.2014 122.4C61.6287 122.4 62.0561 122.225 62.3629 121.918L61.2014 120.756Z" fill="#11999E"/>
<path d="M61.2014 102.709L62.3629 103.871L103.871 62.3739C104.177 62.067 104.353 61.6397 104.353 61.2123C104.353 60.774 104.177 60.3576 103.871 60.0508L62.3629 18.5322C62.0561 18.2254 61.6287 18.05 61.2014 18.05C60.7631 18.05 60.3467 18.2254 60.0399 18.5322L18.5431 60.0399C17.8966 60.6864 17.8966 61.7273 18.5431 62.3629L60.0399 103.871C60.3467 104.177 60.774 104.353 61.2014 104.353C61.6397 104.353 62.0561 104.177 62.3629 103.871L61.2014 102.709L62.3629 101.548L22.0277 61.2014L61.2014 22.0277L100.386 61.2014L60.0399 101.548L61.2014 102.709ZM84.6618 61.2014L83.5002 60.0399L61.2014 82.3387L40.075 61.2014L61.2014 40.075L83.4893 62.3739L84.6618 61.2014L85.8233 60.0399L62.3738 36.5795C62.067 36.2727 61.6397 36.0973 61.2123 36.0973C60.774 36.0973 60.3576 36.2727 60.0508 36.5795L36.5904 60.0399C35.9439 60.6864 35.9439 61.7273 36.5904 62.3629L60.0399 85.8123C60.6864 86.4588 61.7273 86.4588 62.3629 85.8123L85.8233 62.3629C86.4698 61.7164 86.4698 60.6754 85.8233 60.0399L84.6618 61.2014Z" fill="#11999E"/>
<path d="M55.7992 61.2014L56.9607 62.3629L61.2123 58.1113L64.3024 61.2014L61.2123 64.2914L56.9607 60.0398L55.7992 61.2014L54.6377 62.3629L60.0508 67.776C60.3576 68.0828 60.785 68.2581 61.2123 68.2581C61.6506 68.2581 62.067 68.0828 62.3738 67.776L67.7869 62.3629C68.0937 62.0561 68.2691 61.6287 68.2691 61.2014C68.2691 60.7631 68.0937 60.3467 67.7869 60.0398L62.3738 54.6268C61.7273 53.9803 60.6864 53.9803 60.0508 54.6268L54.6377 60.0398C53.9912 60.6864 53.9912 61.7273 54.6377 62.3629L55.7992 61.2014Z" fill="#11999E"/>
<path d="M61.2014 120.745L62.3629 119.584L11.322 68.554C10.6755 67.9075 9.63454 67.9075 8.999 68.554L0.49584 77.0571C0.189025 77.3639 0.0137024 77.7913 0.0137024 78.2186C0.0137024 78.6569 0.189025 79.0733 0.49584 79.3802L60.0399 138.935C60.3467 139.242 60.774 139.417 61.2014 139.417C61.6397 139.417 62.0561 139.242 62.3629 138.935L121.918 79.3802C122.225 79.0733 122.4 78.646 122.4 78.2186C122.4 77.7803 122.225 77.3639 121.918 77.0571L113.415 68.554C112.768 67.9075 111.727 67.9075 111.092 68.554L60.0508 119.595L61.2014 120.745L62.3629 121.907L112.242 72.0276L118.422 78.2077L61.2014 135.44L3.98038 78.2186L10.1605 72.0385L60.0399 121.918C60.6864 122.564 61.7273 122.564 62.3629 121.918L61.2014 120.745Z" fill="#11999E"/>
<path d="M208.248 46.2258H173.09V59.9123H198.329V80.0026H173.09V93.8147H208.248V113.905H153V26.01H208.248V46.2258ZM268.394 83.7695H288.484V98.2094C288.484 106.873 281.452 113.905 272.788 113.905H242.025C233.361 113.905 226.33 106.873 226.33 98.2094V41.7055C226.33 33.0416 233.361 26.01 242.025 26.01H272.788C281.452 26.01 288.484 33.0416 288.484 41.7055V56.1454H268.394V46.2258H246.42V93.8147H268.394V83.7695ZM353.149 26.01C361.688 26.01 368.97 33.0416 368.97 41.7055L368.719 98.335C368.719 106.999 361.688 113.905 353.024 113.905H322.135C313.597 113.905 306.565 106.999 306.565 98.335V41.7055C306.565 33.0416 313.597 26.01 322.135 26.01H353.149ZM348.629 93.8147V46.2258H326.655V93.8147H348.629ZM438.91 26.01H459V113.905H438.91V74.6034L426.102 105.492H419.698L406.891 74.6034V113.905H386.801V26.01H406.891L422.837 64.5582L438.91 26.01Z" fill="#F0F3F3"/>
</g>
<defs>
<clipPath id="clip0_201_2">
<rect width="459" height="139.417" fill="white"/>
</clipPath>
</defs>
</svg>
